<svg xmlns="http://www.w3.org/2000/svg" viewBox="-56.5000 -56.5000 113.0000 113.0000">
  <polyline points="0.000000,-50.000000 19.134172,-46.193977 35.355339,-35.355339 46.193977,-19.134172 50.000000,0.000000 46.193977,19.134172 35.355339,35.355339 19.134172,46.193977 0.000000,50.000000 -19.134172,46.193977 -35.355339,35.355339 -46.193977,19.134172 -50.000000,0.000000 -46.193977,-19.134172 -35.355339,-35.355339 -19.134172,-46.193977 0.000000,-50.000000" fill="none" stroke="#ffffff" stroke-width="3.500000" opacity="1.000000" />
  <polyline points="0.000000,-50.000000 35.355339,35.355339 -50.000000,0.000000 35.355339,-35.355339 0.000000,50.000000 -35.355339,-35.355339 50.000000,0.000000 -35.355339,35.355339 -0.000000,-50.000000" fill="none" stroke="#91bcff" stroke-width="5.000000" />
  <circle cx="19.134172" cy="-46.193977" r="3.500000" fill="#ffffff" stroke="#000000" stroke-width="0.000000" />
  <circle cx="46.193977" cy="-19.134172" r="3.500000" fill="#ffffff" stroke="#000000" stroke-width="0.000000" />
  <circle cx="46.193977" cy="19.134172" r="3.500000" fill="#ffffff" stroke="#000000" stroke-width="0.000000" />
  <circle cx="19.134172" cy="46.193977" r="3.500000" fill="#ffffff" stroke="#000000" stroke-width="0.000000" />
  <circle cx="-19.134172" cy="46.193977" r="3.500000" fill="#ffffff" stroke="#000000" stroke-width="0.000000" />
  <circle cx="-46.193977" cy="19.134172" r="3.500000" fill="#ffffff" stroke="#000000" stroke-width="0.000000" />
  <circle cx="-46.193977" cy="-19.134172" r="3.500000" fill="#ffffff" stroke="#000000" stroke-width="0.000000" />
  <circle cx="-19.134172" cy="-46.193977" r="3.500000" fill="#ffffff" stroke="#000000" stroke-width="0.000000" />
  <circle cx="0.000000" cy="-50.000000" r="6.500000" fill="#91bcff" stroke="#000000" stroke-width="0.000000" />
  <circle cx="35.355339" cy="35.355339" r="6.500000" fill="#91bcff" stroke="#000000" stroke-width="0.000000" />
  <circle cx="-50.000000" cy="0.000000" r="6.500000" fill="#91bcff" stroke="#000000" stroke-width="0.000000" />
  <circle cx="35.355339" cy="-35.355339" r="6.500000" fill="#91bcff" stroke="#000000" stroke-width="0.000000" />
  <circle cx="0.000000" cy="50.000000" r="6.500000" fill="#91bcff" stroke="#000000" stroke-width="0.000000" />
  <circle cx="-35.355339" cy="-35.355339" r="6.500000" fill="#91bcff" stroke="#000000" stroke-width="0.000000" />
  <circle cx="50.000000" cy="0.000000" r="6.500000" fill="#91bcff" stroke="#000000" stroke-width="0.000000" />
  <circle cx="-35.355339" cy="35.355339" r="6.500000" fill="#91bcff" stroke="#000000" stroke-width="0.000000" />
</svg>
